<?xml version="1.0" standalone="no"?><svg xmlns="http://www.w3.org/2000/svg" viewBox="0 0 1440 320"><path fill="#0099ff" fill-opacity="1" d="M0,96L10,96C20,96,40,96,60,106.7C80,117,100,139,120,128C140,117,160,75,180,69.3C200,64,220,96,240,101.3C260,107,280,85,300,80C320,75,340,85,360,112C380,139,400,181,420,176C440,171,460,117,480,96C500,75,520,85,540,106.7C560,128,580,160,600,192C620,224,640,256,660,224C680,192,700,96,720,96C740,96,760,192,780,240C800,288,820,288,840,282.7C860,277,880,267,900,245.3C920,224,940,192,960,181.3C980,171,1000,181,1020,176C1040,171,1060,149,1080,122.7C1100,96,1120,64,1140,90.7C1160,117,1180,203,1200,224C1220,245,1240,203,1260,176C1280,149,1300,139,1320,117.3C1340,96,1360,64,1380,80C1400,96,1420,160,1430,192L1440,224L1440,320L1430,320C1420,320,1400,320,1380,320C1360,320,1340,320,1320,320C1300,320,1280,320,1260,320C1240,320,1220,320,1200,320C1180,320,1160,320,1140,320C1120,320,1100,320,1080,320C1060,320,1040,320,1020,320C1000,320,980,320,960,320C940,320,920,320,900,320C880,320,860,320,840,320C820,320,800,320,780,320C760,320,740,320,720,320C700,320,680,320,660,320C640,320,620,320,600,320C580,320,560,320,540,320C520,320,500,320,480,320C460,320,440,320,420,320C400,320,380,320,360,320C340,320,320,320,300,320C280,320,260,320,240,320C220,320,200,320,180,320C160,320,140,320,120,320C100,320,80,320,60,320C40,320,20,320,10,320L0,320Z"></path></svg>